<?xml version="1.0" encoding="UTF-8" standalone="no"?>
<!-- Created with Inkscape (http://www.inkscape.org/) -->

<svg
   xmlns:dc="http://purl.org/dc/elements/1.1/"
   xmlns:cc="http://creativecommons.org/ns#"
   xmlns:rdf="http://www.w3.org/1999/02/22-rdf-syntax-ns#"
   xmlns:svg="http://www.w3.org/2000/svg"
   xmlns="http://www.w3.org/2000/svg"
   xmlns:sodipodi="http://sodipodi.sourceforge.net/DTD/sodipodi-0.dtd"
   xmlns:inkscape="http://www.inkscape.org/namespaces/inkscape"
   width="1372.783"
   height="214.23514"
   id="svg2"
   version="1.1"
   inkscape:version="0.48.4 r9939"
   sodipodi:docname="Walmart Photo Blue.svg">
  <defs
     id="defs4" />
  <sodipodi:namedview
     id="base"
     pagecolor="#ffffff"
     bordercolor="#666666"
     borderopacity="1.0"
     inkscape:pageopacity="0.0"
     inkscape:pageshadow="2"
     inkscape:zoom="0.7"
     inkscape:cx="687.89084"
     inkscape:cy="35.92495"
     inkscape:document-units="px"
     inkscape:current-layer="svg2"
     showgrid="false"
     showguides="true"
     inkscape:guide-bbox="true"
     fit-margin-top="0"
     fit-margin-left="0"
     fit-margin-right="0"
     fit-margin-bottom="0"
     inkscape:window-width="1920"
     inkscape:window-height="1018"
     inkscape:window-x="-8"
     inkscape:window-y="-8"
     inkscape:window-maximized="1" />
  <metadata
     id="metadata7">
    <rdf:RDF>
      <cc:Work
         rdf:about="">
        <dc:format>image/svg+xml</dc:format>
        <dc:type
           rdf:resource="http://purl.org/dc/dcmitype/StillImage" />
        <dc:title></dc:title>
      </cc:Work>
    </rdf:RDF>
  </metadata>
  <path
     inkscape:connector-curvature="0"
     id="path3908"
     d="m 958.08361,49.37592 c -10.82697,0.0892 -21.71152,0.59202 -32.375,2.21875 0,39.08333 0,78.16667 0,117.25 7.8125,0 15.625,0 23.4375,0 0,-14.69792 0,-29.39583 0,-44.09375 18.41112,2.28457 40.23574,0.25397 52.90629,-14.84375 12.6573,-16.20493 9.8411,-44.32068 -9.43754,-54.34375 -10.51987,-5.55969 -22.79198,-6.35309 -34.53125,-6.1875 z m 4.53125,16.875 c 10.3995,-0.60651 22.44532,5.4002 23.4375,16.78125 1.99295,10.85458 -5.48022,22.09253 -16.3125,24.125 -6.71159,1.58743 -13.86767,1.52513 -20.59375,0.0312 0,-13.14583 0,-26.29167 0,-39.4375 4.38966,-1.13997 8.93045,-1.51661 13.46875,-1.5 z"
     style="font-size:181.87445068px;font-style:normal;font-variant:normal;font-weight:bold;font-stretch:normal;line-height:125%;letter-spacing:0px;word-spacing:0px;writing-mode:lr-tb;fill:#1a75cf;fill-opacity:1;stroke:none;font-family:Myriad Pro;-inkscape-font-specification:Myriad Pro Bold" />
  <path
     inkscape:connector-curvature="0"
     id="path3912"
     d="m 1160.7018,76.22471 c -19.1193,-0.32504 -38.8507,11.20253 -44.2986,30.23078 -6.5827,20.55768 -1.4562,46.88978 18.6574,57.934 22.6697,13.1377 57.5773,6.17587 68.6884,-19.04007 9.0675,-21.04799 5.1555,-49.75442 -15.702,-62.32485 -8.0515,-4.98195 -17.894,-6.96572 -27.3452,-6.79986 z m 0.6318,16.62859 c 10.9399,-0.3431 18.1531,9.94222 19.7881,19.68825 2.4856,13.43991 1.5032,30.83327 -10.9416,39.11044 -10.1726,6.11975 -24.0506,-0.28378 -27.3707,-11.3407 -4.8696,-13.54786 -4.4817,-30.69494 5.0883,-42.07033 3.4984,-3.59163 8.5012,-5.26391 13.4359,-5.38766 z"
     style="font-size:181.87445068px;font-style:normal;font-variant:normal;font-weight:bold;font-stretch:normal;line-height:125%;letter-spacing:0px;word-spacing:0px;writing-mode:lr-tb;fill:#1a75cf;fill-opacity:1;stroke:none;font-family:Myriad Pro;-inkscape-font-specification:Myriad Pro Bold" />
  <path
     inkscape:connector-curvature="0"
     id="path3914"
     d="m 1325.172,76.22454 c -19.223,-0.28929 -38.8237,11.15878 -44.2985,30.19751 -6.6359,20.54268 -1.4722,46.96911 18.5908,57.934 23.4858,13.71861 59.9454,5.52217 69.7402,-21.38436 7.7875,-20.85996 3.2852,-48.84704 -17.6595,-60.49481 -7.8822,-4.6325 -17.2731,-6.38171 -26.373,-6.25234 z m 0.5988,16.62858 c 10.3957,-0.32591 17.6678,9.04484 19.4886,18.42448 2.8879,13.39051 2.1455,30.36951 -9.3452,39.57604 -9.6377,6.97364 -24.3252,1.67495 -28.1356,-9.37852 -5.4914,-13.5731 -5.158,-30.94163 4.1239,-42.76873 3.5142,-3.87148 8.7233,-5.73869 13.8683,-5.85327 z"
     style="font-size:181.87445068px;font-style:normal;font-variant:normal;font-weight:bold;font-stretch:normal;line-height:125%;letter-spacing:0px;word-spacing:0px;writing-mode:lr-tb;fill:#1a75cf;fill-opacity:1;stroke:none;font-family:Myriad Pro;-inkscape-font-specification:Myriad Pro Bold" />
  <path
     style="fill:#fdbb30"
     inkscape:connector-curvature="0"
     d="m 791.71991,72.1204 c 5.01953,0 9.15208,-2.61108 9.71018,-5.9829 l 4.9564,-56.04862 C 806.38649,4.5478 799.89533,0 791.73652,0 783.58436,0 777.09983,4.5478 777.09983,10.08888 l 4.95309,56.04862 c 0.5448,3.37182 4.67736,5.9829 9.6836,5.9829 h -0.0166"
     id="path2974" />
  <path
     style="fill:#fdbb30"
     inkscape:connector-curvature="0"
     d="m 761.42668,89.62729 c 2.51807,-4.34184 2.32872,-9.22184 -0.32555,-11.3911 L 715.03177,45.91987 c -4.79031,-2.77386 -11.97245,0.56474 -16.04853,7.63393 -4.08937,7.05923 -3.36518,14.94563 1.41184,17.7195 l 51.01248,23.75222 c 3.18911,1.18263 7.5376,-1.09293 10.03573,-5.43145 l -0.0166,0.0332"
     id="path2976" />
  <path
     style="fill:#fdbb30"
     inkscape:connector-curvature="0"
     d="m 822.03971,89.59739 c 2.51475,4.33852 6.83998,6.61408 10.03241,5.43146 L 883.0846,71.27662 c 4.80692,-2.77386 5.49125,-10.66027 1.43842,-17.7195 -4.09601,-7.06255 -11.29144,-10.40779 -16.06846,-7.63393 l -46.07268,32.31632 c -2.63434,2.16594 -2.83034,7.04926 -0.32556,11.3911 l -0.0199,-0.0332"
     id="path2978" />
  <path
     style="fill:#fdbb30"
     inkscape:connector-curvature="0"
     d="m 791.71991,142.13466 c 5.01953,0 9.15208,2.58783 9.71018,5.96298 l 4.9564,56.04197 c 0,5.55769 -6.49116,10.09553 -14.64997,10.09553 -8.15216,0 -14.63669,-4.53784 -14.63669,-10.09553 l 4.95309,-56.04197 c 0.5448,-3.37515 4.67736,-5.96298 9.6836,-5.96298 h -0.0166"
     id="path2980" />
  <path
     style="fill:#fdbb30"
     inkscape:connector-curvature="0"
     d="m 822.03971,124.62445 c 2.51475,-4.3518 6.83998,-6.60743 10.03241,-5.41152 l 51.01248,23.73562 c 4.80692,2.77719 5.49125,10.67023 1.43842,17.73611 -4.09601,7.03929 -11.29144,10.3945 -16.06846,7.62396 L 822.38188,136.0222 c -2.63434,-2.18254 -2.83034,-7.06919 -0.32556,-11.40771 l -0.0199,0"
     id="path2982" />
  <path
     style="fill:#fdbb30"
     inkscape:connector-curvature="0"
     d="m 761.42668,124.61781 c 2.51807,4.3352 2.32872,9.22185 -0.32555,11.40771 l -46.06936,32.28643 c -4.79031,2.77054 -11.97245,-0.58467 -16.04853,-7.62397 -4.08937,-7.06587 -3.36518,-14.95892 1.41184,-17.73611 l 51.01248,-23.73561 c 3.18911,-1.19592 7.5376,1.05971 10.03573,5.41152 l -0.0166,0"
     id="path2984" />
  <path
     style="fill:#1a75cf"
     inkscape:connector-curvature="0"
     d="m 501.12219,135.91922 c 0,1.72079 -0.15281,3.49473 -0.62453,5.05275 -1.95333,6.47123 -8.65379,11.94255 -17.03517,11.94255 -6.98947,0 -12.54051,-3.96978 -12.54051,-12.35448 0,-12.83285 14.1251,-16.37741 30.20353,-16.28772 v 11.6469 z m 25.22055,-22.36364 c 0,-21.16107 -9.04246,-39.78083 -39.5948,-39.78083 -15.68312,0 -28.13061,4.40496 -34.92408,8.33155 l 4.97634,17.01192 c 6.2088,-3.91995 16.10501,-7.16554 25.4697,-7.16554 15.49708,-0.0432 18.03508,8.7767 18.03508,14.42076 v 1.33544 c -33.78132,-0.0498 -55.13507,11.6469 -55.13507,35.47553 0,14.56029 10.8762,28.19705 29.78164,28.19705 11.617,0 21.34711,-4.63749 27.17056,-12.07211 h 0.5747 c 0,0 3.85351,16.14155 25.12421,9.96597 -1.10954,-6.71374 -1.47496,-13.87927 -1.47496,-22.49651 v -33.22323"
     id="path2986" />
  <path
     style="fill:#1a75cf"
     inkscape:connector-curvature="0"
     d="m 0,44.95649 c 0,0 22.07462,90.45447 25.59926,105.13434 4.11262,17.13482 11.52398,23.44328 32.88105,19.18449 l 13.78294,-56.07851 c 3.49473,-13.93575 5.83341,-23.87182 8.08572,-38.03346 h 0.392 c 1.58126,14.31113 3.82361,24.1409 6.70045,38.07997 0,0 5.60752,25.45973 8.48436,38.82742 2.88017,13.36436 10.89613,21.79225 31.81802,17.20458 L 160.58832,44.95317 h -26.50948 l -11.21836,53.75312 c -3.01637,15.63993 -5.75037,27.8715 -7.85983,42.17931 h -0.37538 c -1.91679,-14.17826 -4.35846,-25.91485 -7.42133,-41.15614 L 95.53379,44.95317 H 67.90812 L 55.41744,98.34751 c -3.5346,16.23125 -6.84995,29.32985 -8.94944,43.1593 H 46.08597 C 43.93,128.48461 41.0598,112.01418 37.95374,96.31113 c 0,0 -7.41469,-38.19291 -10.02245,-51.35796 H 0"
     id="path2988" />
  <path
     style="fill:#1a75cf"
     inkscape:connector-curvature="0"
     d="m 210.73376,135.91922 c 0,1.72079 -0.15282,3.49473 -0.63118,5.05275 -1.95001,6.47123 -8.65379,11.94255 -17.03517,11.94255 -6.98946,0 -12.53386,-3.96978 -12.53386,-12.35448 0,-12.83285 14.12178,-16.37741 30.20353,-16.28772 v 11.6469 z m 25.21722,-22.36364 c 0,-21.16107 -9.04245,-39.78083 -39.58815,-39.78083 -15.68644,0 -28.1439,4.40496 -34.93405,8.33155 l 4.9697,17.01192 c 6.2088,-3.91995 16.10501,-7.16554 25.47302,-7.16554 15.50705,-0.0432 18.04505,8.7767 18.04505,14.42076 v 1.33544 c -33.79461,-0.0498 -55.13839,11.6469 -55.13839,35.47553 0,14.56029 10.86955,28.19705 29.76171,28.19705 11.63361,0 21.35707,-4.63749 27.18716,-12.07211 h 0.56806 c 0,0 3.86348,16.14155 25.13086,9.96597 -1.11287,-6.71374 -1.47497,-13.87927 -1.47497,-22.49651 v -33.22323"
     id="path2990" />
  <path
     style="fill:#1a75cf"
     inkscape:connector-curvature="0"
     d="M 278.03727,142.88543 V 44.95649 h -25.25044 v 124.32215 h 25.25044 v -26.39321"
     id="path2992" />
  <path
     style="fill:#1a75cf"
     inkscape:connector-curvature="0"
     d="m 608.3527,44.95649 c 0,11.92594 0,91.71018 0,91.71018 0,12.65014 2.38519,21.50324 7.47116,26.92141 4.45479,4.73715 11.77645,7.80335 20.55647,7.80335 7.46784,0 14.80944,-1.42513 18.27427,-2.71074 l -0.32555,-19.72598 c -2.57787,0.63118 -5.53776,1.13944 -9.59059,1.13944 -8.60395,0 -11.4808,-5.51118 -11.4808,-16.86242 V 98.14155 h 21.98826 V 74.35278 H 633.25766 V 44.95649 H 608.3527"
     id="path2994" />
  <path
     style="fill:#1a75cf"
     inkscape:connector-curvature="0"
     d="m 543.17858,75.88422 v 93.39442 h 26.04773 V 121.4586 c 0,-2.58451 0.15613,-4.83682 0.56473,-6.89645 1.92676,-10.02245 9.58727,-16.4206 20.5897,-16.4206 3.01637,0 5.17566,0.32888 7.51434,0.66108 V 74.35278 c -1.9633,-0.39199 -3.29541,-0.5747 -5.73708,-0.5747 -9.72014,0 -20.77904,6.27191 -25.41986,19.72597 h -0.70427 V 75.88422 h -22.85529"
     id="path2996" />
  <path
     style="fill:#1a75cf"
     inkscape:connector-curvature="0"
     d="m 295.7169,75.88422 v 93.39442 h 25.37669 v -54.76632 c 0,-2.57122 0.3023,-5.28861 1.19259,-7.6439 2.10282,-5.5145 7.23529,-11.97245 15.424,-11.97245 10.24502,0 15.02868,8.6571 15.02868,21.15111 v 53.22824 h 25.35675 v -55.43404 c 0,-2.45163 0.33552,-5.4082 1.05972,-7.57082 2.08288,-6.27524 7.61068,-11.37782 15.22468,-11.37782 10.38122,0 15.3642,8.5043 15.3642,23.21075 0,0 0,39.44863 0,51.16861 h 25.37336 v -55.00883 c 0,-29.00762 -14.7297,-40.49174 -31.35959,-40.49174 -7.3582,0 -13.17169,1.84371 -18.4304,5.06271 -4.41492,2.72071 -8.37473,6.57422 -11.8296,11.64026 h -0.37539 C 369.11295,80.40877 359.6785,73.77143 347.38381,73.77143 c -15.79606,0 -22.89515,8.006 -27.20045,14.79615 h -0.37871 V 75.87757 H 295.7169"
     id="path2998" />
  <path
     style="fill:#1a75cf"
     inkscape:connector-curvature="0"
     d="m 1219.6778,43.94634 c 0,11.92594 0,91.71018 0,91.71018 0,12.65014 2.3852,21.50324 7.4711,26.92141 4.4548,4.73715 11.7765,7.80335 20.5565,7.80335 7.4677,0 14.8093,-1.42513 18.2742,-2.71074 l -0.3256,-19.72598 c -2.5778,0.63118 -5.5377,1.13944 -9.5906,1.13944 -8.6038,0 -11.4807,-5.51118 -11.4807,-16.86242 V 97.1314 h 21.9882 V 73.34263 h -21.9882 V 43.94634 h -24.9049"
     id="path2994-4" />
  <path
     inkscape:connector-curvature="0"
     id="path2992-4"
     d="m 1021.4255,46.06878 0,124.3125 0.5,0 24.75,0 0.625,0 0,-54.75 c 0,-2.57122 0.2972,-5.30096 1.1875,-7.65625 2.1028,-5.5145 7.2175,-11.96875 15.4062,-11.96875 10.2451,0 15.0313,8.66224 15.0313,21.15625 l 0,53.21875 25.375,0 0,-52.625 c -0.01,-0.20466 -0.031,-0.40458 -0.031,-0.625 0,-11.59431 -2.2417,-19.85182 -4.9062,-25.5625 -0.01,0.0131 -0.021,0.0181 -0.031,0.0312 -0.093,-0.23246 -0.2141,-0.45874 -0.3125,-0.6875 -2.1142,-4.32128 -4.4115,-7.093 -6.0312,-8.6875 -0.1278,-0.12572 -0.2252,-0.23245 -0.3438,-0.34375 -0.1732,-0.15807 -0.3536,-0.31538 -0.5312,-0.46875 -0.2551,-0.22352 -0.4732,-0.41898 -0.6563,-0.5625 -0.04,-0.0325 -0.085,-0.0615 -0.125,-0.0937 -0.1028,-0.0767 -0.1285,-0.11543 -0.1875,-0.15625 -0.077,-0.0602 -0.1721,-0.0969 -0.25,-0.15625 l 0,-0.0312 c -4.6143,-3.51192 -10.5186,-5.53125 -17.3125,-5.53125 -15.4613,0 -22.5742,7.68168 -26.9062,14.375 l 0,-43.1875 -25.25,0 z"
     style="fill:#1a75cf" />
</svg>
